<?xml version="1.0" encoding="UTF-8"?>
<svg width="230px" height="64px" viewBox="0 0 230 64" version="1.1" xmlns="http://www.w3.org/2000/svg" xmlns:xlink="http://www.w3.org/1999/xlink">
    <title>Artboard</title>
    <g id="Artboard" stroke="none" stroke-width="1" fill="none" fill-rule="evenodd">
        <g id="Crobor---2014---vetor" transform="translate(0.000000, -0.000000)">
            <path d="M32.105,0 L197.825,0 C206.646,0 214.674,3.616 220.493,9.436 C226.303,15.246 229.917,23.257 229.929,32.062 L229.929,32.106 C229.929,32.359 229.917,32.75 229.896,33.294 C229.876,33.819 229.853,34.229 229.832,34.513 C229.196,42.79 225.368,50.216 219.589,55.56 C213.848,60.869 206.188,64.125 197.825,64.125 L32.105,64.125 C23.287,64.125 15.258,60.524 9.436,54.719 C3.616,48.916 -4.3298698e-15,40.912 -4.3298698e-15,32.102 L-4.3298698e-15,32.062 C-4.3298698e-15,23.25 3.618,15.235 9.441,9.42 C15.261,3.608 23.29,0 32.105,0" id="Fill-1" fill="#ED9F2D"></path>
            <path d="M197.825,6.028 L32.105,6.028 C24.935,6.028 18.409,8.959 13.68,13.681 C8.961,18.394 6.028,24.9 6.028,32.062 L6.028,32.102 C6.028,39.259 8.959,45.755 13.675,50.457 C18.404,55.172 24.931,58.097 32.105,58.097 L197.825,58.097 C204.638,58.097 210.863,55.459 215.515,51.156 C220.204,46.821 223.31,40.79 223.827,34.066 C223.861,33.616 223.884,33.282 223.891,33.07 L223.891,33.058 C223.897,32.902 223.901,32.576 223.901,32.106 C223.901,24.947 220.961,18.427 216.232,13.698 C211.502,8.967 204.983,6.028 197.825,6.028" id="Fill-2" fill="#292D78"></path>
            <path d="M185.339,35.309 L191.956,35.309 C199.24,35.309 201.694,37.473 202.444,44.465 C202.485,45.255 202.652,46.878 202.777,47.919 C202.901,48.793 202.943,49.126 203.234,50 L212.473,50 C211.932,48.543 211.808,47.711 211.558,44.131 C211.267,38.097 209.06,34.643 204.524,33.394 C209.519,31.688 211.891,28.026 211.891,22.116 C211.891,18.579 210.309,15.415 207.604,13.585 C205.274,11.961 201.861,11.337 195.993,11.337 L177.099,11.337 L177.099,50 L185.339,50 L185.339,35.309 M185.339,28.442 L185.339,18.204 L196.867,18.204 C198.24,18.204 199.323,18.329 199.947,18.496 C201.736,19.161 202.777,20.784 202.777,23.073 C202.777,24.987 202.153,26.611 201.112,27.443 C200.238,28.15 198.948,28.442 196.867,28.442 L185.339,28.442" id="Stroke-3" stroke="#FFFFFE" stroke-linecap="round" stroke-linejoin="round"></path>
            <path d="M194.037,35.392 C199.738,35.808 201.778,38.18 202.444,44.465 C202.485,45.255 202.652,46.878 202.777,47.919 C202.901,48.793 202.943,49.126 203.234,50 L212.473,50 C211.932,48.543 211.808,47.711 211.558,44.131 C211.267,38.097 209.06,34.643 204.524,33.394 C209.519,31.688 211.891,28.026 211.891,22.116 C211.891,18.579 210.309,15.415 207.604,13.585 C205.274,11.961 201.861,11.337 195.993,11.337 L194.037,11.337 L194.037,18.204 L196.867,18.204 C198.24,18.204 199.323,18.329 199.947,18.496 C201.736,19.161 202.777,20.784 202.777,23.073 C202.777,24.987 202.153,26.611 201.112,27.443 C200.238,28.15 198.948,28.442 196.867,28.442 L194.037,28.442 L194.037,35.392 Z" id="Fill-4" fill="#ED9F2D"></path>
            <path d="M194.037,35.392 C199.738,35.808 201.778,38.18 202.444,44.465 C202.485,45.255 202.652,46.878 202.777,47.919 C202.901,48.793 202.943,49.126 203.234,50 L212.473,50 C211.932,48.543 211.808,47.711 211.558,44.131 C211.267,38.097 209.06,34.643 204.524,33.394 C209.519,31.688 211.891,28.026 211.891,22.116 C211.891,18.579 210.309,15.415 207.604,13.585 C205.274,11.961 201.861,11.337 195.993,11.337 L194.037,11.337 L194.037,18.204 L196.867,18.204 C198.24,18.204 199.323,18.329 199.947,18.496 C201.736,19.161 202.777,20.784 202.777,23.073 C202.777,24.987 202.153,26.611 201.112,27.443 C200.238,28.15 198.948,28.442 196.867,28.442 L194.037,28.442 L194.037,35.392 Z" id="Stroke-5" stroke="#FFFFFE" stroke-width="0.216"></path>
            <path d="M185.339,35.309 L191.956,35.309 C192.706,35.309 193.412,35.35 194.037,35.392 C194.037,33.4764923 194.037,31.9995806 194.037,30.9612649 C194.037,30.4551362 194.037,29.6153812 194.037,28.442 L185.339,28.442 L185.339,18.204 L194.037,18.204 L194.037,11.337 L177.099,11.337 L177.099,50 L185.339,50 L185.339,35.309 Z" id="Fill-6" fill="#ED9F2D"></path>
            <path d="M185.339,35.309 L191.956,35.309 C192.706,35.309 193.412,35.35 194.037,35.392 L194.037,28.442 L185.339,28.442 L185.339,18.204 L194.037,18.204 L194.037,11.337 L177.099,11.337 L177.099,50 L185.339,50 L185.339,35.309 Z" id="Stroke-7" stroke="#FFFFFE" stroke-width="0.216"></path>
            <path d="M159.869,10.796 C154.417,10.796 149.673,12.128 146.635,14.583 C142.807,17.58 140.767,23.198 140.767,30.606 C140.767,35.766 141.891,40.011 144.138,43.216 C147.176,47.544 153.002,50 160.452,50 C165.654,50 170.065,48.709 172.979,46.379 C176.808,43.341 178.93,37.764 178.93,30.98 C178.93,24.987 177.598,19.91 175.226,16.747 C172.271,12.96 166.777,10.796 159.869,10.796 M159.911,17.33 C166.819,17.33 169.899,21.409 169.899,30.439 C169.899,39.387 166.777,43.507 159.911,43.507 C152.961,43.507 149.839,39.387 149.839,30.315 C149.839,26.236 150.422,23.157 151.629,21.242 C153.211,18.745 156.165,17.33 159.911,17.33" id="Stroke-8" stroke="#FFFFFE" stroke-linecap="round" stroke-linejoin="round"></path>
            <path d="M159.869,10.796 L159.869,17.33 L159.911,17.33 C166.819,17.33 169.899,21.409 169.899,30.439 C169.899,39.387 166.777,43.507 159.911,43.507 L159.869,43.507 L159.869,50 C160.036,50 160.244,50 160.452,50 C165.654,50 170.065,48.709 172.979,46.379 C176.808,43.341 178.93,37.764 178.93,30.98 C178.93,24.987 177.598,19.91 175.226,16.747 C172.271,12.96 166.777,10.796 159.869,10.796 Z" id="Fill-9" fill="#ED9F2D"></path>
            <path d="M159.869,10.796 L159.869,17.33 L159.911,17.33 C166.819,17.33 169.899,21.409 169.899,30.439 C169.899,39.387 166.777,43.507 159.911,43.507 L159.869,43.507 L159.869,50 C160.036,50 160.244,50 160.452,50 C165.654,50 170.065,48.709 172.979,46.379 C176.808,43.341 178.93,37.764 178.93,30.98 C178.93,24.987 177.598,19.91 175.226,16.747 C172.271,12.96 166.777,10.796 159.869,10.796 Z" id="Stroke-10" stroke="#FFFFFE" stroke-width="0.216"></path>
            <path d="M159.869,10.796 C154.417,10.796 149.673,12.128 146.635,14.583 C142.807,17.58 140.767,23.198 140.767,30.606 C140.767,35.766 141.891,40.011 144.138,43.216 C147.093,47.461 152.711,49.875 159.869,50 L159.869,43.507 C152.961,43.466 149.839,39.345 149.839,30.315 C149.839,26.236 150.422,23.157 151.629,21.242 C153.169,18.745 156.124,17.372 159.869,17.33 L159.869,10.796 Z" id="Fill-11" fill="#ED9F2D"></path>
            <path d="M159.869,10.796 C154.417,10.796 149.673,12.128 146.635,14.583 C142.807,17.58 140.767,23.198 140.767,30.606 C140.767,35.766 141.891,40.011 144.138,43.216 C147.093,47.461 152.711,49.875 159.869,50 L159.869,43.507 C152.961,43.466 149.839,39.345 149.839,30.315 C149.839,26.236 150.422,23.157 151.629,21.242 C153.169,18.745 156.124,17.372 159.869,17.33 L159.869,10.796 Z" id="Stroke-12" stroke="#FFFFFE" stroke-width="0.216"></path>
            <path d="M109.971,50 L131.32,50 C134.775,50 137.188,49.708 138.686,49.126 C142.265,47.711 144.346,44.298 144.346,39.72 C144.346,35.434 142.432,32.354 138.728,30.689 C141.974,29.274 144.346,25.446 144.346,21.45 C144.346,17.746 142.432,14.209 139.56,12.669 C137.854,11.711 135.482,11.337 131.778,11.337 L109.971,11.337 L109.971,50 M118.169,27.193 L118.169,18.204 L129.53,18.204 C131.736,18.204 132.61,18.371 133.568,19.036 C134.608,19.744 135.273,20.951 135.273,22.449 C135.273,23.947 134.566,25.404 133.443,26.277 C132.485,27.027 131.653,27.193 129.364,27.193 L118.169,27.193 M118.169,43.091 L118.169,34.102 L129.53,34.102 C131.736,34.102 132.651,34.268 133.651,34.934 C134.691,35.6 135.315,36.848 135.315,38.347 C135.315,39.845 134.608,41.302 133.526,42.176 C132.527,42.925 131.736,43.091 129.364,43.091 L118.169,43.091" id="Stroke-13" stroke="#FFFFFE" stroke-linecap="round" stroke-linejoin="round"></path>
            <path d="M126.7,50 L131.32,50 C134.775,50 137.188,49.708 138.686,49.126 C142.265,47.711 144.346,44.298 144.346,39.72 C144.346,35.434 142.432,32.354 138.728,30.689 C141.974,29.274 144.346,25.446 144.346,21.45 C144.346,17.746 142.432,14.209 139.56,12.669 C137.854,11.711 135.482,11.337 131.778,11.337 L126.7,11.337 L126.7,18.204 L129.53,18.204 C131.736,18.204 132.61,18.371 133.568,19.036 C134.608,19.744 135.273,20.951 135.273,22.449 C135.273,23.947 134.566,25.404 133.443,26.277 C132.485,27.027 131.653,27.193 129.364,27.193 L126.7,27.193 L126.7,34.102 L129.53,34.102 C131.736,34.102 132.651,34.268 133.651,34.934 C134.691,35.6 135.315,36.848 135.315,38.347 C135.315,39.845 134.608,41.302 133.526,42.176 C132.527,42.925 131.736,43.091 129.364,43.091 L126.7,43.091 L126.7,50" id="Fill-14" fill="#ED9F2D"></path>
            <polyline id="Fill-15" fill="#ED9F2D" points="109.971 50 126.7 50 126.7 43.091 118.169 43.091 118.169 34.102 126.7 34.102 126.7 27.193 118.169 27.193 118.169 18.204 126.7 18.204 126.7 11.337 109.971 11.337 109.971 50"></polyline>
            <path d="M93.365,10.796 C87.913,10.796 83.169,12.128 80.131,14.583 C76.302,17.58 74.305,23.198 74.305,30.606 C74.305,35.766 75.387,40.011 77.634,43.216 C80.672,47.544 86.54,50 93.948,50 C99.15,50 103.561,48.709 106.475,46.379 C110.304,43.341 112.426,37.764 112.426,30.98 C112.426,24.987 111.095,19.91 108.722,16.747 C105.767,12.96 100.274,10.796 93.365,10.796 M93.407,17.33 C100.315,17.33 103.395,21.409 103.395,30.439 C103.395,39.387 100.274,43.507 93.407,43.507 C86.457,43.507 83.336,39.387 83.336,30.315 C83.336,26.236 83.918,23.157 85.125,21.242 C86.707,18.745 89.661,17.33 93.407,17.33" id="Stroke-16" stroke="#FFFFFE" stroke-linecap="round" stroke-linejoin="round"></path>
            <path d="M93.365,10.796 L93.365,17.33 L93.407,17.33 C100.315,17.33 103.395,21.409 103.395,30.439 C103.395,39.387 100.274,43.507 93.407,43.507 L93.365,43.507 L93.365,50 C93.574,50 93.74,50 93.948,50 C99.15,50 103.561,48.709 106.475,46.379 C110.304,43.341 112.426,37.764 112.426,30.98 C112.426,24.987 111.095,19.91 108.722,16.747 C105.767,12.96 100.274,10.796 93.365,10.796" id="Fill-17" fill="#ED9F2D"></path>
            <path d="M93.365,10.796 C87.913,10.796 83.169,12.128 80.131,14.583 C76.302,17.58 74.305,23.198 74.305,30.606 C74.305,35.766 75.387,40.011 77.634,43.216 C80.588,47.461 86.207,49.875 93.365,50 L93.365,43.507 C86.457,43.466 83.336,39.345 83.336,30.315 C83.336,26.236 83.918,23.157 85.125,21.242 C86.707,18.745 89.62,17.372 93.365,17.33 L93.365,10.796" id="Fill-18" fill="#ED9F2D"></path>
            <path d="M51.29,35.309 L57.907,35.309 C65.232,35.309 67.646,37.473 68.395,44.465 C68.478,45.255 68.645,46.878 68.77,47.919 C68.853,48.793 68.936,49.126 69.227,50 L78.425,50 C77.925,48.543 77.8,47.711 77.509,44.131 C77.218,38.097 75.012,34.643 70.476,33.394 C75.47,31.688 77.842,28.026 77.842,22.116 C77.842,18.579 76.302,15.415 73.556,13.585 C71.267,11.961 67.813,11.337 61.986,11.337 L43.092,11.337 L43.092,50 L51.29,50 L51.29,35.309 M51.29,28.442 L51.29,18.204 L62.86,18.204 C64.233,18.204 65.274,18.329 65.898,18.496 C67.729,19.161 68.77,20.784 68.77,23.073 C68.77,24.987 68.103,26.611 67.063,27.443 C66.189,28.15 64.941,28.442 62.86,28.442 L51.29,28.442" id="Stroke-19" stroke="#FFFFFE" stroke-linecap="round" stroke-linejoin="round"></path>
            <path d="M60.03,35.392 C65.69,35.808 67.729,38.18 68.395,44.465 C68.478,45.255 68.645,46.878 68.77,47.919 C68.853,48.793 68.936,49.126 69.227,50 L78.425,50 C77.925,48.543 77.8,47.711 77.509,44.131 C77.218,38.097 75.012,34.643 70.476,33.394 C75.47,31.688 77.842,28.026 77.842,22.116 C77.842,18.579 76.302,15.415 73.556,13.585 C71.267,11.961 67.813,11.337 61.986,11.337 L59.997,11.337 L59.997,18.204 L62.86,18.204 C64.233,18.204 65.274,18.329 65.898,18.496 C67.729,19.161 68.77,20.784 68.77,23.073 C68.77,24.987 68.103,26.611 67.063,27.443 C66.189,28.15 64.941,28.442 62.86,28.442 L60.03,28.442 L60.03,35.392" id="Fill-20" fill="#ED9F2D"></path>
            <path d="M51.29,35.309 L57.907,35.309 C58.656,35.309 59.364,35.35 60.03,35.392 L60.03,28.442 L51.29,28.442 L51.29,18.204 L60.03,18.204 L60.03,11.337 L43.092,11.337 L43.092,50 L51.29,50 L51.29,35.309" id="Fill-21" fill="#ED9F2D"></path>
            <path d="M44.964,43.091 L33.104,43.091 C29.982,43.091 27.652,42.508 26.154,41.343 C23.865,39.678 22.616,35.683 22.616,29.982 C22.616,25.986 23.323,22.907 24.613,21.367 C26.278,19.244 29.025,18.204 32.812,18.204 L44.964,18.204 L44.964,11.337 L31.855,11.337 C28.068,11.337 24.239,12.003 22.033,13.043 C16.582,15.624 13.543,22.033 13.543,30.731 C13.543,37.639 15.333,42.966 18.621,46.171 C21.659,49.042 24.822,50 31.48,50 L44.964,50 L44.964,43.091 Z" id="Fill-22" fill="#B3B3B3"></path>
            <path d="M44.964,43.091 L33.104,43.091 C29.982,43.091 27.652,42.508 26.154,41.343 C23.865,39.678 22.616,35.683 22.616,29.982 C22.616,25.986 23.323,22.907 24.613,21.367 C26.278,19.244 29.025,18.204 32.812,18.204 L44.964,18.204 L44.964,11.337 L31.855,11.337 C28.068,11.337 24.239,12.003 22.033,13.043 C16.582,15.624 13.543,22.033 13.543,30.731 C13.543,37.639 15.333,42.966 18.621,46.171 C21.659,49.042 24.822,50 31.48,50 L44.964,50 L44.964,43.091 Z" id="Stroke-23" stroke="#FFFFFE" stroke-linejoin="round"></path>
            <path d="M44.964,43.091 L33.104,43.091 C29.982,43.091 27.652,42.508 26.154,41.343 C23.865,39.678 22.616,35.683 22.616,29.982 C22.616,25.986 23.323,22.907 24.613,21.367 C26.278,19.244 29.025,18.204 32.812,18.204 L44.964,18.204 L44.964,11.337 L31.855,11.337 C28.068,11.337 24.239,12.003 22.033,13.043 C16.582,15.624 13.543,22.033 13.543,30.731 C13.543,37.639 15.333,42.966 18.621,46.171 C21.659,49.042 24.822,50 31.48,50 L44.964,50 L44.964,43.091" id="Fill-24" fill="#ED9F2D"></path>
            <polygon id="Fill-34" fill="#ED9F2D" points="84.053 10.519 83.979 10.032 102.96 6.807 102.995 10.127"></polygon>
            <polygon id="Stroke-35" stroke="#FFFFFE" points="84.053 10.519 83.979 10.032 102.96 6.807 102.995 10.127"></polygon>
            <polyline id="Fill-36" fill="#ED9F2D" points="86.213 10.082 102.963 7.108 102.918 10.051 86.213 10.082"></polyline>
        </g>
    </g>
</svg>